<svg xmlns="http://www.w3.org/2000/svg" viewBox="0 0 200.46 191.66"><defs><style>.cls-1{fill:#fff;}.cls-2{fill:#afc8e3;}.cls-3{fill:#e0efff;}.cls-4{fill:#b9d3f0;}</style></defs><g id="Layer_2" data-name="Layer 2"><g id="OBJECTS"><polygon class="cls-1" points="200.25 96.96 200.25 165.53 187 191.58 24.86 190.5 0.57 163.32 0.88 162.35 11.84 127.81 46 123.4 58.51 142.17 63.63 149.85 113.21 52.89 114.31 0 167.2 25.49 167.29 25.74 200.25 96.96"/><polygon class="cls-2" points="200.46 165.12 200.25 165.53 187 191.58 186.96 191.66 167.01 191.52 154.93 191.43 24.86 190.5 0.57 163.32 0 162.02 0.88 162.35 40.82 177.21 125.51 180.46 162.12 172.95 178.14 169.66 200.25 165.12 200.46 165.12"/><polygon class="cls-2" points="200.25 96.96 156.34 44.23 167.29 25.74 200.25 96.96"/><polygon class="cls-3" points="85.65 59.94 58.51 142.17 63.63 149.85 113.21 52.89 114.31 0 91.82 31.89 85.65 59.94"/><polygon class="cls-3" points="0.88 162.35 22.33 135.47 46 123.4 11.84 127.81 0.88 162.35"/><polygon class="cls-3" points="63.63 149.85 85.22 158.55 64.52 142.24 63.63 149.85"/><polygon class="cls-3" points="113.06 44.91 113.08 64.12 133.02 85.52 109.28 68.14 107.62 48.96 113.06 44.91"/><polygon class="cls-2" points="168.7 57.79 165.6 76.89 173.34 59.33 168.7 57.79"/><polygon class="cls-4" points="40.82 177.21 52.33 190.25 125.99 190.98 125.51 180.46 40.82 177.21"/><path class="cls-4" d="M178.14,169.66,167,191.52l-12.08-.09c2.07-5.41,4.75-12.35,7.19-18.48Z"/><polygon class="cls-2" points="162.12 172.95 147.94 156.74 157.9 142.46 142.63 157.74 154.25 177.66 162.12 172.95"/><polygon class="cls-4" points="11.84 127.81 22.33 135.47 0.88 162.35 11.84 127.81"/></g></g></svg>