<svg xmlns="http://www.w3.org/2000/svg" viewBox="0 0 142.14 163.1"><defs><style>.cls-1{fill:#fff;}.cls-2{fill:#afc8e3;}.cls-3{fill:#bfdaf7;}.cls-4{fill:#e0efff;}</style></defs><g id="Layer_2" data-name="Layer 2"><g id="OBJECTS"><polygon class="cls-1" points="142.15 106.88 126 162.82 30.95 162.82 0.01 117.9 29.75 93.66 52.9 0 90.36 27.55 95.86 52.89 119 53.99 142.15 106.88"/><polygon class="cls-2" points="125.06 162.82 30.95 162.82 0 117.9 18.04 126.33 30.6 132.2 40.91 137.02 45.05 138.95 51.16 155.31 125.06 162.82"/><polygon class="cls-2" points="126.06 163.1 125.06 162.82 126 162.82 126.06 163.1"/><polygon class="cls-3" points="95.86 52.89 77.14 66.24 75.61 33.04 90.36 27.55 95.86 52.89"/><polygon class="cls-3" points="119 53.99 105 74.63 129.01 110.62 142.15 106.88 119 53.99"/><polygon class="cls-4" points="52.9 0 75.61 33.04 90.36 27.55 52.9 0"/><polygon class="cls-4" points="95.86 52.89 77.14 66.24 105 74.63 119 53.99 95.86 52.89"/><polygon class="cls-3" points="142.15 106.88 129.01 110.62 126 162.82 142.15 106.88"/><polygon class="cls-3" points="45.27 162.82 39.18 162.82 18.04 126.33 30.6 132.2 45.27 162.82"/><polygon class="cls-3" points="53.4 162.82 50.27 162.82 40.91 137.02 45.05 138.95 53.4 162.82"/><polygon class="cls-2" points="29.75 93.66 24.13 112.48 25.41 96.85 29.75 93.66"/><polygon class="cls-2" points="65.56 18.43 53.7 41.45 63.66 15.82 71.97 13.92 65.56 18.43"/><polygon class="cls-2" points="114.84 90.06 104.22 100.36 90.7 102.3 106.47 103.26 117.74 92.64 117.74 77.5 114.84 90.06"/><path class="cls-1" d="M19.07,145.63,7.58,162.57H35.44S19.07,146.49,19.07,145.63Z"/></g></g></svg>