<svg id="comingsoon" xmlns="http://www.w3.org/2000/svg" width="470" height="261" viewBox="0 0 470 261">
  <g id="comingsoon-3">
    <g id="Group_8" data-name="Group 8" transform="translate(-412 -290)">
      <rect id="Rectangle_2" data-name="Rectangle 2" width="470" height="261" rx="16" transform="translate(412 290)" fill="#f9f7f7"/>
    </g>
  </g>
  <path id="icons8-services" d="M88.106,2.063,75.64,6.96l2.226,10.774c-.868.868-1.792,1.87-2.76,2.938l-10.685-2.4L59.166,30.557l9.083,6.055a34.31,34.31,0,0,0,0,4.541l-9.35,5.7,4.9,12.466L74.3,57.181A24.232,24.232,0,0,0,77.421,60.3L75.016,70.8l12.377,5.254,6.055-9.083a33.068,33.068,0,0,0,4.452,0l5.788,9.35,12.466-4.9-2.4-11.4a24.309,24.309,0,0,0,3.028-3.117l10.863,2.761,5.343-12.466-9.439-5.788a35.719,35.719,0,0,0,0-4.363l9.35-5.788L128,18.8l-10.863,2.4a24.269,24.269,0,0,0-3.117-3.117l2.4-10.507L104.045,2.33l-5.788,9.083a23.869,23.869,0,0,0-4.452-.089Zm7.925,25.467a11.4,11.4,0,1,1-11.4,11.4A11.391,11.391,0,0,1,96.031,27.529ZM34.858,53.174l-1.781,11.4a28.44,28.44,0,0,0-4.719,2.048l-9.528-6.945L8.856,69.647l6.589,9.617a36.451,36.451,0,0,0-1.959,4.719L2,86.12v13.891l11.4,2.048a28.356,28.356,0,0,0,2.048,4.808L8.5,116.128l9.973,9.973,9.617-6.589a36.5,36.5,0,0,0,4.719,1.959l1.781,11.487H48.57l2.048-11.4a27.99,27.99,0,0,0,4.808-2.048l9.528,6.945,9.973-9.973-6.857-9.617a37.512,37.512,0,0,0,1.87-4.719l11.843-2.137V86.031L70.119,84.251a28.043,28.043,0,0,0-2.048-4.719L74.927,70,65.043,59.674,55.338,66.62a36.257,36.257,0,0,0-4.63-1.959L48.927,53.174Zm7.034,28.494a11.4,11.4,0,1,1-11.4,11.4A11.434,11.434,0,0,1,41.892,81.668Z" transform="translate(167.508 62.99)" fill="#1b5ba7"/>
</svg>
