<svg id="discord" xmlns="http://www.w3.org/2000/svg" width="99" height="58" viewBox="0 0 99 58">
  <rect id="Rectangle_6" data-name="Rectangle 6" width="99" height="58" rx="8" fill="#252c36"/>
  <g id="discord-icon-svgrepo-com" transform="translate(22.159 7.835)">
    <path id="Path_2" data-name="Path 2" d="M46.321,3.545A44.536,44.536,0,0,0,35.04,0a33.108,33.108,0,0,0-1.445,3,41.423,41.423,0,0,0-12.5,0A32.072,32.072,0,0,0,19.63,0,44.388,44.388,0,0,0,8.34,3.554,47.313,47.313,0,0,0,.232,35.235a45.105,45.105,0,0,0,13.836,7.09,34.418,34.418,0,0,0,2.963-4.881,29.13,29.13,0,0,1-4.666-2.271c.391-.29.774-.593,1.144-.905a31.886,31.886,0,0,0,27.664,0c.374.312.757.615,1.144.905a29.052,29.052,0,0,1-4.675,2.276,34.247,34.247,0,0,0,2.963,4.88A45.014,45.014,0,0,0,54.45,35.235,47.266,47.266,0,0,0,46.321,3.545ZM18.257,28.857c-2.7,0-4.916-2.522-4.916-5.592s2.168-5.6,4.916-5.6,4.963,2.521,4.916,5.6C23.178,26.335,21.006,28.857,18.257,28.857Zm18.167,0c-2.7,0-4.916-2.522-4.916-5.592s2.168-5.6,4.916-5.6,4.963,2.521,4.916,5.6C41.341,26.335,39.173,28.857,36.425,28.857Z" fill="#5865f2"/>
  </g>
</svg>
