<svg id="fiverr" xmlns="http://www.w3.org/2000/svg" width="253" height="51" viewBox="0 0 253 51">
  <rect id="Rectangle_8" data-name="Rectangle 8" width="253" height="51" rx="8" fill="#252c36"/>
  <g id="fiverr-vector-logo" transform="translate(48.809 -224.528)">
    <path id="Path_3" data-name="Path 3" d="M120.368,249.567H116.8c-2.3,0-3.566,1.723-3.566,4.71v10.7h-6.894V249.567h-2.884c-2.3,0-3.566,1.723-3.566,4.71v10.7H93V243.817h6.894v3.225a4.737,4.737,0,0,1,4.949-3.225h8.4v3.225a4.737,4.737,0,0,1,4.948-3.225h2.3Zm-28.991,6.45H77.111A3.91,3.91,0,0,0,81.36,259.7c1.843,0,3.106-.8,3.566-2.065l6.092,1.723c-1.5,3.686-5.17,5.87-9.658,5.87-7.474,0-10.921-5.87-10.921-10.921,0-4.948,2.986-10.818,10.46-10.818,7.935,0,10.58,5.989,10.58,10.46A8.355,8.355,0,0,1,91.376,256.017Zm-6.552-4.027a3.622,3.622,0,0,0-3.788-3.447c-2.184,0-3.447.921-3.908,3.447ZM58.477,264.976h5.989l7.593-21.057H65.149l-3.686,12.3L57.778,243.8H50.884Zm-28.07,0H37.2V249.567h6.552v15.409h6.791V243.817H37.2v-1.263a2.3,2.3,0,0,1,2.525-2.3h4.027V234.5H38.7c-4.948,0-8.276,3.106-8.276,7.593v1.723H26.5v5.751h3.908Z" transform="translate(0 0)" fill="#fff"/>
    <path id="Path_4" data-name="Path 4" d="M580.948,375.2a4.249,4.249,0,1,0-4.249-4.249A4.317,4.317,0,0,0,580.948,375.2Z" transform="translate(-456.315 -109.642)" fill="#1dbf73"/>
  </g>
</svg>
