<svg id="github" xmlns="http://www.w3.org/2000/svg" width="99" height="58" viewBox="0 0 99 58">
  <rect id="Rectangle_6" data-name="Rectangle 6" width="99" height="58" rx="8" fill="#252c36"/>
  <path id="iconmonstr-github-1" d="M22.5,0a22.226,22.226,0,0,0-7.112,43.372c1.123.206,1.487-.484,1.487-1.07V38.159c-6.259,1.346-7.562-2.626-7.562-2.626a5.912,5.912,0,0,0-2.5-3.257c-2.042-1.382.156-1.352.156-1.352a4.718,4.718,0,0,1,3.448,2.294c2.006,3.4,5.263,2.418,6.548,1.849a4.7,4.7,0,0,1,1.429-2.975c-5-.566-10.251-2.474-10.251-11a8.562,8.562,0,0,1,2.318-5.974,7.924,7.924,0,0,1,.219-5.89s1.89-.6,6.189,2.281a21.553,21.553,0,0,1,11.267,0c4.3-2.878,6.182-2.281,6.182-2.281a7.916,7.916,0,0,1,.221,5.89,8.539,8.539,0,0,1,2.316,5.974c0,8.548-5.263,10.43-10.273,10.981A5.289,5.289,0,0,1,28.125,36.2V42.3c0,.592.36,1.287,1.5,1.068A22.228,22.228,0,0,0,22.5,0Z" transform="translate(27 7.294)" fill="#fff"/>
</svg>
