<svg id="mail" data-name="mail" xmlns="http://www.w3.org/2000/svg" width="331" height="58" viewBox="0 0 331 58">
  <rect id="Rectangle_8" data-name="Rectangle 8" width="331" height="58" rx="8" fill="#5f00dc"/>
  <path id="Rectangle_9" data-name="Rectangle 9" d="M8,0H99a0,0,0,0,1,0,0V58a0,0,0,0,1,0,0H8a8,8,0,0,1-8-8V8A8,8,0,0,1,8,0Z" fill="#170036"/>
  <text id="dev_mikeslab.it" data-name="dev@mikeslab.it" transform="translate(103 37)" fill="#fff" font-size="26" font-family="Chillax-Semibold, Chillax" font-weight="600"><tspan x="0" y="0">dev@mikeslab.it</tspan></text>
  <g id="Layer_x0020_1" transform="translate(22.991 4.158)">
    <path id="Path_3" data-name="Path 3" d="M36.635,1.387H4.834A3.85,3.85,0,0,0,.853,5.079V27.194a3.856,3.856,0,0,0,3.981,3.692h31.8a3.856,3.856,0,0,0,3.981-3.692V5.079A3.85,3.85,0,0,0,36.635,1.387Z" transform="translate(5.774 8.705)" fill="#0d0127" fill-rule="evenodd"/>
    <path id="Path_4" data-name="Path 4" d="M35.959,1.487H4.158a3.1,3.1,0,0,0-3.2,2.964V26.567a3.1,3.1,0,0,0,3.2,2.964h31.8a3.1,3.1,0,0,0,3.2-2.964V4.451a3.1,3.1,0,0,0-3.2-2.964Z" transform="translate(6.45 9.333)" fill="#632fea" fill-rule="evenodd"/>
    <path id="Path_5" data-name="Path 5" d="M2.177,1.95l15.467,8.966L33.111,1.95l.867,1.316-15.9,9.218-.434.251-.434-.251L1.31,3.266Z" transform="translate(8.864 12.24)" fill="#0d0127" fill-rule="evenodd"/>
    <rect id="Rectangle_12" data-name="Rectangle 12" width="39.763" height="37.263" transform="translate(6.627 6.21)" fill="none"/>
    <rect id="Rectangle_13" data-name="Rectangle 13" width="53.017" height="49.684" fill="none"/>
  </g>
</svg>
