<svg xmlns="http://www.w3.org/2000/svg" viewBox="0 0 183.93 129.46"><defs><style>.cls-1{fill:#fff;}.cls-2{fill:#afc8e3;}.cls-3{fill:#b9d3f0;}.cls-4{fill:#e0efff;}</style></defs><g id="Layer_2" data-name="Layer 2"><g id="OBJECTS"><polygon class="cls-1" points="183.93 128.84 5.6 128.84 0.03 102.01 0.1 101.89 37.52 39.51 102.61 0 151.42 49.97 150.26 92.98 174.67 104.6 183.93 128.84"/><polygon class="cls-2" points="183.93 128.84 140.39 128.99 122.96 129.05 39.04 129.34 23.66 129.4 5.73 129.46 5.6 128.84 0.03 102.01 0 101.87 0.1 101.89 19.14 105.41 51.62 111.4 93.99 119.23 123.34 113.91 146.5 109.71 174.67 104.6 183.93 128.84"/><polygon class="cls-3" points="51.62 111.4 45.43 122.61 39.04 118.96 39.04 129.34 23.66 129.4 19.14 105.41 51.62 111.4"/><polygon class="cls-3" points="136.91 113.76 140.39 128.99 122.96 129.05 123.34 113.91 146.5 109.71 167.06 128.67 136.91 113.76"/><polygon class="cls-3" points="151.42 49.97 123.4 66.39 123.4 90.19 150.26 92.98 151.42 49.97"/><polygon class="cls-4" points="102.61 0 123.4 66.39 151.42 49.97 102.61 0"/><polygon class="cls-3" points="132.22 90.82 105.71 88.76 131.39 85.27 132.22 90.82"/><polygon class="cls-3" points="16.96 107.94 29.67 90.53 10.9 106.38 16.96 107.94"/><polygon class="cls-4" points="116.79 36.48 97.66 21.17 112.65 24.04 116.79 36.48"/></g></g></svg>