<svg xmlns="http://www.w3.org/2000/svg" viewBox="0 0 360.9 142.81"><defs><style>.cls-1{fill:#fff;}.cls-2{fill:#afc8e3;}.cls-3{fill:#b9d3f0;}</style></defs><g id="Layer_2" data-name="Layer 2"><g id="OBJECTS"><path class="cls-1" d="M22.8,142.71l-.07.1S22.72,142.74,22.8,142.71Z"/><polygon class="cls-1" points="360.79 113.54 350.27 139.5 0 139.77 58.18 59.49 185.53 34.94 185.68 34.91 193.18 37.01 195.45 47.85 242.18 0 334.73 29.75 343.46 57.8 344.96 62.64 352.75 87.7 360.79 113.54"/><path class="cls-1" d="M22.8,142.71l-.07.1S22.72,142.74,22.8,142.71Z"/><polygon class="cls-2" points="360.9 113.28 360.79 113.54 350.27 139.5 0 139.77 58.18 59.49 72.24 66.76 88.53 75.18 104.88 83.63 137.1 100.29 194.95 100.58 211.31 100.66 222.04 91.51 253.62 96.05 288.3 101.04 352.75 87.7 353.1 87.63 360.9 113.28"/><polygon class="cls-3" points="113.2 116.46 110.14 139.77 0 139.77 58.18 59.49 72.24 66.76 60.58 106.19 68.28 108.76 88.53 75.18 104.88 83.63 81.11 129.29 113.2 116.46"/><polygon class="cls-3" points="218.14 139.77 191.72 139.77 194.95 100.58 211.31 100.66 218.14 139.77"/><polygon class="cls-3" points="288.3 101.04 282.58 139.77 248.21 139.77 253.22 109.72 237.3 118.49 253.62 96.05 288.3 101.04"/><polygon class="cls-3" points="77.09 55.66 105.45 66.57 85.82 53.91 77.09 55.66"/><path class="cls-3" d="M345,62.64l-16.29,7.07L314.16,56.42l14.65,8.93s7.64-4.16,14.65-7.55Z"/><polygon class="cls-2" points="222.04 91.51 201.67 80.78 246.06 95.75 233.53 103.11 222.04 91.51"/><polygon class="cls-3" points="185 59.28 190.61 39.21 185.53 34.94 185.68 34.91 193.18 37.01 195.45 47.85 185 59.28"/></g></g></svg>