<svg xmlns="http://www.w3.org/2000/svg" viewBox="0 0 180.68 205.47"><defs><style>.cls-1{fill:#fff;}.cls-2{fill:#afc8e3;}.cls-3{fill:#b9d3f0;}.cls-4{fill:#e0efff;}</style></defs><g id="Layer_2" data-name="Layer 2"><g id="OBJECTS"><polygon class="cls-1" points="180.68 122.37 149.47 205.47 60.81 205.47 22.03 184.59 0 90.94 29.02 58.01 57.5 49.98 80.14 0 155.17 50.69 180.68 122.37"/><polygon class="cls-2" points="180.68 122.38 149.47 205.47 60.81 205.47 60.24 205.16 22.03 184.59 62.21 148.19 90.33 142.06 134.42 132.46 167.56 125.23 180.68 122.38"/><polygon class="cls-3" points="134.42 132.46 101.41 205.47 60.81 205.47 60.24 205.16 90.33 142.06 134.42 132.46"/><polygon class="cls-3" points="180.68 122.38 149.47 205.47 129.31 205.47 167.56 125.23 180.68 122.38"/><polygon class="cls-3" points="115.72 167.21 129.31 205.47 138.91 186.53 121.73 148.32 115.72 167.21"/><polygon class="cls-4" points="0 90.94 62.21 148.19 22.03 184.59 0 90.94"/><polygon class="cls-2" points="45.72 163.2 38.63 169.7 25.44 159.27 35.09 174.43 45.72 163.2"/><polygon class="cls-3" points="90.33 142.06 132.19 108.32 101.61 140.34 90.33 142.06"/><polygon class="cls-4" points="80.14 0 76.81 46.43 98.4 52.91 76.27 50.21 57.5 49.98 80.14 0"/></g></g></svg>